<?xml version="1.0" encoding="utf-8"?>
<!-- Generator: Adobe Illustrator 16.0.0, SVG Export Plug-In . SVG Version: 6.00 Build 0)  -->
<!DOCTYPE svg PUBLIC "-//W3C//DTD SVG 1.1//EN" "http://www.w3.org/Graphics/SVG/1.1/DTD/svg11.dtd">
<svg id="icon-northtower" version="1.1" id="Laag_1" xmlns="http://www.w3.org/2000/svg" xmlns:xlink="http://www.w3.org/1999/xlink" x="0px" y="0px"
	 width="120px" height="120px" viewBox="0 0 150 150" enable-background="new 0 0 150 150" xml:space="preserve">
<g>
	<path d="M75.195,126.748c-32.714,0-59.328-26.614-59.328-59.328c0-32.714,26.614-59.328,59.328-59.328
		c32.712,0,59.326,26.614,59.326,59.328C134.521,100.134,107.907,126.748,75.195,126.748z M75.195,14.092
		c-29.405,0-53.328,23.923-53.328,53.328c0,29.405,23.923,53.328,53.328,53.328c29.404,0,53.326-23.923,53.326-53.328
		C128.521,38.015,104.6,14.092,75.195,14.092z"/>
</g>
<text transform="matrix(1 0 0 1 37.2695 145.667)" font-family="'BebasNeue'" font-size="18">North Tower</text>
<polygon points="82.651,36.781 68.055,36.781 65.17,39.832 65.17,110.667 85.219,110.667 85.219,39.832 "/>
<polygon points="74.483,37.449 75.194,21.115 75.906,37.449 "/>
</svg>
