<?xml version="1.0" encoding="utf-8"?>
<!-- Generator: Adobe Illustrator 16.0.0, SVG Export Plug-In . SVG Version: 6.00 Build 0)  -->
<!DOCTYPE svg PUBLIC "-//W3C//DTD SVG 1.1//EN" "http://www.w3.org/Graphics/SVG/1.1/DTD/svg11.dtd">
<svg version="1.1" id="Laag_1" xmlns="http://www.w3.org/2000/svg" xmlns:xlink="http://www.w3.org/1999/xlink" x="0px" y="0px"
	 width="150px" height="150px" viewBox="0 0 150 150" enable-background="new 0 0 150 150" xml:space="preserve">
<g>
	<path d="M75.195,126.748c-32.714,0-59.328-26.614-59.328-59.328c0-32.714,26.614-59.328,59.328-59.328
		c32.712,0,59.326,26.614,59.326,59.328C134.521,100.134,107.907,126.748,75.195,126.748z M75.195,14.092
		c-29.405,0-53.328,23.923-53.328,53.328c0,29.405,23.923,53.328,53.328,53.328c29.404,0,53.326-23.923,53.326-53.328
		C128.521,38.015,104.6,14.092,75.195,14.092z"/>
</g>
<text transform="matrix(1 0 0 1 63.2695 145.667)" font-family="'BebasNeue'" font-size="18">Map</text>
<polygon points="29.215,77.998 54.223,90.459 74.932,78.612 96.079,90.459 121.174,77.998 109.417,43.338 90.771,54.941 
	75.194,44.303 59.312,54.482 41.411,43.338 "/>
</svg>
